<svg width="241" height="36" viewBox="0 0 241 36" fill="none" xmlns="http://www.w3.org/2000/svg">
<path fill-rule="evenodd" clip-rule="evenodd" d="M40.2051 29.7301C36.0833 17.4679 15.2688 -1.88917 16.3171 29.707L40.2051 29.7301Z" fill="#319795"/>
<path fill-rule="evenodd" clip-rule="evenodd" d="M14.3677 0.190437C6.88942 1.83361 8.5687 14.515 17.2513 12.6059C25.3866 10.8171 22.8857 -1.68126 14.3677 0.190437Z" fill="#319795"/>
<path fill-rule="evenodd" clip-rule="evenodd" d="M2.54781 21.4644L4.44658 22.8596C5.73369 21.3595 5.93671 19.5589 8.05649 19.7062C11.5735 19.9504 12.2864 25.8798 6.2645 27.2154C1.5636 28.258 1.31987 26.1733 0 28.455C0.798999 30.7404 1.68079 29.7893 8.72448 29.8734C10.8018 29.8983 12.1607 30.085 13.5209 29.0374C12.8747 27.2667 13.7283 28.3086 10.7457 27.2898C16.0621 21.48 10.4982 18.7179 8.52722 17.3864C9.23924 15.4348 10.0356 14.606 10.9662 12.8314L8.73968 11.6167C6.99524 14.7624 4.08172 18.2643 2.54781 21.4644Z" fill="#319795"/>
<path d="M2.46988 23.656C3.59899 24.5042 4.60078 25.0247 4.70745 24.8185C4.81413 24.6124 3.98529 23.7577 2.85619 22.9095C1.72708 22.0613 0.725291 21.5408 0.618617 21.7469C0.511943 21.9531 1.34078 22.8078 2.46988 23.656Z" fill="#319795"/>
<path d="M50.3571 7.18182H55.1937L61.671 22.9915H61.9267L68.4039 7.18182H73.2406V29H69.448V14.0107H69.2456L63.2157 28.9361H60.3819L54.3521 13.9787H54.1497V29H50.3571V7.18182ZM84.6184 29.3196C82.9778 29.3196 81.5609 28.9787 80.3677 28.2969C79.1816 27.608 78.269 26.6349 77.6298 25.3778C76.9906 24.1136 76.671 22.6257 76.671 20.9141C76.671 19.2308 76.9906 17.7536 77.6298 16.4822C78.2761 15.2038 79.1781 14.2095 80.3358 13.4993C81.4934 12.782 82.8535 12.4233 84.416 12.4233C85.4245 12.4233 86.3762 12.5866 87.2711 12.9134C88.1731 13.233 88.9686 13.7301 89.6575 14.4048C90.3535 15.0795 90.9004 15.9389 91.2981 16.983C91.6958 18.0199 91.8947 19.2557 91.8947 20.6903V21.8729H78.4821V19.2734H88.198C88.1909 18.5348 88.0311 17.8778 87.7186 17.3026C87.4061 16.7202 86.9693 16.2621 86.4082 15.9283C85.8542 15.5945 85.2079 15.4276 84.4693 15.4276C83.6809 15.4276 82.9885 15.6193 82.3919 16.0028C81.7953 16.3793 81.3301 16.8764 80.9963 17.4943C80.6696 18.1051 80.5027 18.7763 80.4956 19.5078V21.777C80.4956 22.7287 80.6696 23.5455 81.0176 24.2273C81.3656 24.902 81.8521 25.4205 82.4771 25.7827C83.1021 26.1378 83.8336 26.3153 84.6717 26.3153C85.2328 26.3153 85.7406 26.2372 86.1951 26.081C86.6497 25.9176 87.0439 25.6797 87.3777 25.3672C87.7115 25.0547 87.9636 24.6676 88.1341 24.206L91.7349 24.6108C91.5076 25.5625 91.0744 26.3935 90.4352 27.1037C89.8031 27.8068 88.9934 28.3537 88.0062 28.7443C87.019 29.1278 85.8897 29.3196 84.6184 29.3196ZM102.402 29.3196C100.761 29.3196 99.3441 28.9787 98.1509 28.2969C96.9648 27.608 96.0522 26.6349 95.413 25.3778C94.7738 24.1136 94.4542 22.6257 94.4542 20.9141C94.4542 19.2308 94.7738 17.7536 95.413 16.4822C96.0593 15.2038 96.9613 14.2095 98.119 13.4993C99.2766 12.782 100.637 12.4233 102.199 12.4233C103.208 12.4233 104.159 12.5866 105.054 12.9134C105.956 13.233 106.752 13.7301 107.441 14.4048C108.137 15.0795 108.684 15.9389 109.081 16.983C109.479 18.0199 109.678 19.2557 109.678 20.6903V21.8729H96.2653V19.2734H105.981C105.974 18.5348 105.814 17.8778 105.502 17.3026C105.189 16.7202 104.752 16.2621 104.191 15.9283C103.637 15.5945 102.991 15.4276 102.252 15.4276C101.464 15.4276 100.772 15.6193 100.175 16.0028C99.5785 16.3793 99.1133 16.8764 98.7795 17.4943C98.4528 18.1051 98.2859 18.7763 98.2788 19.5078V21.777C98.2788 22.7287 98.4528 23.5455 98.8008 24.2273C99.1488 24.902 99.6353 25.4205 100.26 25.7827C100.885 26.1378 101.617 26.3153 102.455 26.3153C103.016 26.3153 103.524 26.2372 103.978 26.081C104.433 25.9176 104.827 25.6797 105.161 25.3672C105.495 25.0547 105.747 24.6676 105.917 24.206L109.518 24.6108C109.291 25.5625 108.858 26.3935 108.218 27.1037C107.586 27.8068 106.777 28.3537 105.789 28.7443C104.802 29.1278 103.673 29.3196 102.402 29.3196ZM121.112 12.6364V15.6193H111.705V12.6364H121.112ZM114.027 8.71591H117.884V24.0781C117.884 24.5966 117.962 24.9943 118.118 25.2713C118.281 25.5412 118.494 25.7259 118.757 25.8253C119.02 25.9247 119.311 25.9744 119.631 25.9744C119.872 25.9744 120.093 25.9567 120.291 25.9212C120.497 25.8857 120.654 25.8537 120.76 25.8253L121.41 28.8402C121.204 28.9112 120.909 28.9893 120.526 29.0746C120.149 29.1598 119.688 29.2095 119.141 29.2237C118.175 29.2521 117.305 29.1065 116.531 28.7869C115.757 28.4602 115.142 27.956 114.688 27.2741C114.24 26.5923 114.02 25.7401 114.027 24.7173V8.71591ZM124.337 29V12.6364H128.076V15.3636H128.247C128.545 14.419 129.056 13.6911 129.781 13.1797C130.512 12.6612 131.347 12.402 132.284 12.402C132.498 12.402 132.735 12.4126 132.998 12.4339C133.268 12.4482 133.492 12.473 133.669 12.5085V16.0561C133.506 15.9993 133.247 15.9496 132.892 15.907C132.544 15.8572 132.206 15.8324 131.88 15.8324C131.176 15.8324 130.544 15.9851 129.983 16.2905C129.429 16.5888 128.993 17.0043 128.673 17.5369C128.353 18.0696 128.194 18.6839 128.194 19.38V29H124.337ZM139.127 35.1364C138.601 35.1364 138.115 35.0938 137.667 35.0085C137.227 34.9304 136.875 34.8381 136.612 34.7315L137.507 31.7273C138.068 31.8906 138.569 31.9688 139.009 31.9616C139.45 31.9545 139.837 31.8161 140.171 31.5462C140.512 31.2834 140.799 30.843 141.034 30.2251L141.364 29.3409L135.43 12.6364H139.521L143.292 24.9943H143.463L147.244 12.6364H151.346L144.794 30.9815C144.489 31.848 144.084 32.5902 143.58 33.2081C143.075 33.8331 142.458 34.3089 141.726 34.6357C141.002 34.9695 140.135 35.1364 139.127 35.1364Z" fill="#319795"/>
<path d="M170.307 25.9091C170.307 27.0062 170.102 27.9458 169.691 28.728C169.283 29.5069 168.726 30.1035 168.02 30.5178C167.318 30.9321 166.521 31.1392 165.629 31.1392C164.738 31.1392 163.939 30.9321 163.233 30.5178C162.53 30.1001 161.973 29.5019 161.562 28.723C161.155 27.9408 160.951 27.0028 160.951 25.9091C160.951 24.812 161.155 23.8741 161.562 23.0952C161.973 22.313 162.53 21.7147 163.233 21.3004C163.939 20.8861 164.738 20.679 165.629 20.679C166.521 20.679 167.318 20.8861 168.02 21.3004C168.726 21.7147 169.283 22.313 169.691 23.0952C170.102 23.8741 170.307 24.812 170.307 25.9091ZM168.453 25.9091C168.453 25.1368 168.332 24.4856 168.09 23.9553C167.851 23.4216 167.52 23.0189 167.096 22.7472C166.671 22.4721 166.183 22.3345 165.629 22.3345C165.076 22.3345 164.587 22.4721 164.162 22.7472C163.738 23.0189 163.405 23.4216 163.163 23.9553C162.925 24.4856 162.805 25.1368 162.805 25.9091C162.805 26.6813 162.925 27.3343 163.163 27.8679C163.405 28.3982 163.738 28.8009 164.162 29.076C164.587 29.3478 165.076 29.4837 165.629 29.4837C166.183 29.4837 166.671 29.3478 167.096 29.076C167.52 28.8009 167.851 28.3982 168.09 27.8679C168.332 27.3343 168.453 26.6813 168.453 25.9091ZM175.524 31V20.8182H182.047V22.3643H177.368V25.1286H181.599V26.6747H177.368V31H175.524ZM187.2 31V20.8182H193.722V22.3643H189.044V25.1286H193.275V26.6747H189.044V31H187.2ZM200.72 20.8182V31H198.875V20.8182H200.72ZM214.905 24.2536H213.046C212.993 23.9486 212.895 23.6785 212.752 23.4432C212.61 23.2045 212.432 23.0024 212.22 22.8366C212.008 22.6709 211.766 22.5466 211.494 22.4638C211.226 22.3776 210.936 22.3345 210.624 22.3345C210.071 22.3345 209.58 22.4737 209.153 22.7521C208.725 23.0272 208.391 23.4316 208.149 23.9652C207.907 24.4955 207.786 25.1435 207.786 25.9091C207.786 26.688 207.907 27.3442 208.149 27.8778C208.394 28.4081 208.729 28.8092 209.153 29.081C209.58 29.3494 210.069 29.4837 210.619 29.4837C210.924 29.4837 211.209 29.4439 211.475 29.3643C211.743 29.2815 211.983 29.1605 212.195 29.0014C212.411 28.8423 212.592 28.6468 212.737 28.4148C212.887 28.1828 212.989 27.9176 213.046 27.6193L214.905 27.6293C214.835 28.1132 214.685 28.5672 214.453 28.9915C214.224 29.4157 213.924 29.7902 213.553 30.1151C213.182 30.4366 212.747 30.6884 212.25 30.8707C211.753 31.0497 211.201 31.1392 210.595 31.1392C209.7 31.1392 208.901 30.9321 208.198 30.5178C207.496 30.1035 206.942 29.5052 206.538 28.723C206.133 27.9408 205.931 27.0028 205.931 25.9091C205.931 24.812 206.135 23.8741 206.543 23.0952C206.95 22.313 207.506 21.7147 208.208 21.3004C208.911 20.8861 209.706 20.679 210.595 20.679C211.161 20.679 211.688 20.7585 212.176 20.9176C212.663 21.0767 213.097 21.3104 213.478 21.6186C213.859 21.9235 214.173 22.2981 214.418 22.7422C214.666 23.183 214.829 23.6868 214.905 24.2536ZM220.067 31V20.8182H226.689V22.3643H221.911V25.1286H226.346V26.6747H221.911V29.4538H226.729V31H220.067ZM232.043 31V20.8182H235.862C236.644 20.8182 237.3 20.9541 237.83 21.2259C238.364 21.4976 238.767 21.8788 239.038 22.3693C239.313 22.8565 239.451 23.425 239.451 24.0746C239.451 24.7275 239.312 25.2943 239.033 25.7749C238.758 26.2521 238.352 26.6217 237.815 26.8835C237.278 27.142 236.619 27.2713 235.837 27.2713H233.117V25.7401H235.588C236.045 25.7401 236.42 25.6771 236.712 25.5511C237.003 25.4219 237.219 25.2346 237.358 24.9893C237.5 24.7408 237.572 24.4358 237.572 24.0746C237.572 23.7133 237.5 23.4051 237.358 23.1499C237.215 22.8913 236.998 22.6958 236.707 22.5632C236.415 22.4273 236.039 22.3594 235.578 22.3594H233.888V31H232.043ZM237.303 26.3864L239.824 31H237.766L235.29 26.3864H237.303Z" fill="#4A5568"/>
</svg>
