<svg width="204" height="36" viewBox="0 0 204 36" fill="none" xmlns="http://www.w3.org/2000/svg">
<path fill-rule="evenodd" clip-rule="evenodd" d="M40.2051 29.7296C36.0833 17.4674 15.2688 -1.88966 16.3171 29.7066L40.2051 29.7296Z" fill="#319795"/>
<path fill-rule="evenodd" clip-rule="evenodd" d="M14.368 0.190437C6.88967 1.83361 8.56894 14.515 17.2516 12.6059C25.3869 10.8171 22.886 -1.68126 14.368 0.190437Z" fill="#319795"/>
<path fill-rule="evenodd" clip-rule="evenodd" d="M2.54781 21.4648L4.44658 22.8601C5.73369 21.36 5.93671 19.5594 8.05649 19.7067C11.5735 19.9509 12.2864 25.8803 6.2645 27.2159C1.5636 28.2584 1.31987 26.1738 0 28.4555C0.798999 30.7409 1.68079 29.7897 8.72448 29.8739C10.8018 29.8988 12.1607 30.0854 13.5209 29.0378C12.8747 27.2672 13.7283 28.3091 10.7457 27.2903C16.0621 21.4805 10.4982 18.7184 8.52722 17.3869C9.23924 15.4353 10.0356 14.6065 10.9662 12.8319L8.73968 11.6172C6.99524 14.7629 4.08172 18.2648 2.54781 21.4648Z" fill="#319795"/>
<path d="M2.47013 23.6554C3.59923 24.5036 4.60102 25.0241 4.7077 24.8179C4.81437 24.6118 3.98553 23.7571 2.85643 22.9089C1.72733 22.0607 0.725535 21.5402 0.618861 21.7463C0.512187 21.9525 1.34103 22.8072 2.47013 23.6554Z" fill="#319795"/>
<path d="M50.3571 7.18182H55.1937L61.671 22.9915H61.9267L68.4039 7.18182H73.2406V29H69.448V14.0107H69.2456L63.2157 28.9361H60.3819L54.3521 13.9787H54.1497V29H50.3571V7.18182ZM84.6184 29.3196C82.9778 29.3196 81.5609 28.9787 80.3677 28.2969C79.1816 27.608 78.269 26.6349 77.6298 25.3778C76.9906 24.1136 76.671 22.6257 76.671 20.9141C76.671 19.2308 76.9906 17.7536 77.6298 16.4822C78.2761 15.2038 79.1781 14.2095 80.3358 13.4993C81.4934 12.782 82.8535 12.4233 84.416 12.4233C85.4245 12.4233 86.3762 12.5866 87.2711 12.9134C88.1731 13.233 88.9686 13.7301 89.6575 14.4048C90.3535 15.0795 90.9004 15.9389 91.2981 16.983C91.6958 18.0199 91.8947 19.2557 91.8947 20.6903V21.8729H78.4821V19.2734H88.198C88.1909 18.5348 88.0311 17.8778 87.7186 17.3026C87.4061 16.7202 86.9693 16.2621 86.4082 15.9283C85.8542 15.5945 85.2079 15.4276 84.4693 15.4276C83.6809 15.4276 82.9885 15.6193 82.3919 16.0028C81.7953 16.3793 81.3301 16.8764 80.9963 17.4943C80.6696 18.1051 80.5027 18.7763 80.4956 19.5078V21.777C80.4956 22.7287 80.6696 23.5455 81.0176 24.2273C81.3656 24.902 81.8521 25.4205 82.4771 25.7827C83.1021 26.1378 83.8336 26.3153 84.6717 26.3153C85.2328 26.3153 85.7406 26.2372 86.1951 26.081C86.6497 25.9176 87.0439 25.6797 87.3777 25.3672C87.7115 25.0547 87.9636 24.6676 88.1341 24.206L91.7349 24.6108C91.5076 25.5625 91.0744 26.3935 90.4352 27.1037C89.8031 27.8068 88.9934 28.3537 88.0062 28.7443C87.019 29.1278 85.8897 29.3196 84.6184 29.3196ZM102.402 29.3196C100.761 29.3196 99.3441 28.9787 98.1509 28.2969C96.9648 27.608 96.0522 26.6349 95.413 25.3778C94.7738 24.1136 94.4542 22.6257 94.4542 20.9141C94.4542 19.2308 94.7738 17.7536 95.413 16.4822C96.0593 15.2038 96.9613 14.2095 98.119 13.4993C99.2766 12.782 100.637 12.4233 102.199 12.4233C103.208 12.4233 104.159 12.5866 105.054 12.9134C105.956 13.233 106.752 13.7301 107.441 14.4048C108.137 15.0795 108.684 15.9389 109.081 16.983C109.479 18.0199 109.678 19.2557 109.678 20.6903V21.8729H96.2653V19.2734H105.981C105.974 18.5348 105.814 17.8778 105.502 17.3026C105.189 16.7202 104.752 16.2621 104.191 15.9283C103.637 15.5945 102.991 15.4276 102.252 15.4276C101.464 15.4276 100.772 15.6193 100.175 16.0028C99.5785 16.3793 99.1133 16.8764 98.7795 17.4943C98.4528 18.1051 98.2859 18.7763 98.2788 19.5078V21.777C98.2788 22.7287 98.4528 23.5455 98.8008 24.2273C99.1488 24.902 99.6353 25.4205 100.26 25.7827C100.885 26.1378 101.617 26.3153 102.455 26.3153C103.016 26.3153 103.524 26.2372 103.978 26.081C104.433 25.9176 104.827 25.6797 105.161 25.3672C105.495 25.0547 105.747 24.6676 105.917 24.206L109.518 24.6108C109.291 25.5625 108.858 26.3935 108.218 27.1037C107.586 27.8068 106.777 28.3537 105.789 28.7443C104.802 29.1278 103.673 29.3196 102.402 29.3196ZM121.112 12.6364V15.6193H111.705V12.6364H121.112ZM114.027 8.71591H117.884V24.0781C117.884 24.5966 117.962 24.9943 118.118 25.2713C118.281 25.5412 118.494 25.7259 118.757 25.8253C119.02 25.9247 119.311 25.9744 119.631 25.9744C119.872 25.9744 120.093 25.9567 120.291 25.9212C120.497 25.8857 120.654 25.8537 120.76 25.8253L121.41 28.8402C121.204 28.9112 120.909 28.9893 120.526 29.0746C120.149 29.1598 119.688 29.2095 119.141 29.2237C118.175 29.2521 117.305 29.1065 116.531 28.7869C115.757 28.4602 115.142 27.956 114.688 27.2741C114.24 26.5923 114.02 25.7401 114.027 24.7173V8.71591ZM124.337 29V12.6364H128.076V15.3636H128.247C128.545 14.419 129.056 13.6911 129.781 13.1797C130.512 12.6612 131.347 12.402 132.284 12.402C132.498 12.402 132.735 12.4126 132.998 12.4339C133.268 12.4482 133.492 12.473 133.669 12.5085V16.0561C133.506 15.9993 133.247 15.9496 132.892 15.907C132.544 15.8572 132.206 15.8324 131.88 15.8324C131.176 15.8324 130.544 15.9851 129.983 16.2905C129.429 16.5888 128.993 17.0043 128.673 17.5369C128.353 18.0696 128.194 18.6839 128.194 19.38V29H124.337ZM139.127 35.1364C138.601 35.1364 138.115 35.0938 137.667 35.0085C137.227 34.9304 136.875 34.8381 136.612 34.7315L137.507 31.7273C138.068 31.8906 138.569 31.9688 139.009 31.9616C139.45 31.9545 139.837 31.8161 140.171 31.5462C140.512 31.2834 140.799 30.843 141.034 30.2251L141.364 29.3409L135.43 12.6364H139.521L143.292 24.9943H143.463L147.244 12.6364H151.346L144.794 30.9815C144.489 31.848 144.084 32.5902 143.58 33.2081C143.075 33.8331 142.458 34.3089 141.726 34.6357C141.002 34.9695 140.135 35.1364 139.127 35.1364Z" fill="#319795"/>
<path d="M161.209 31V20.8182H167.831V22.3643H163.054V25.1286H167.488V26.6747H163.054V29.4538H167.871V31H161.209ZM173.186 31V20.8182H177.004C177.786 20.8182 178.443 20.9541 178.973 21.2259C179.506 21.4976 179.909 21.8788 180.181 22.3693C180.456 22.8565 180.594 23.425 180.594 24.0746C180.594 24.7275 180.454 25.2943 180.176 25.7749C179.901 26.2521 179.495 26.6217 178.958 26.8835C178.421 27.142 177.761 27.2713 176.979 27.2713H174.26V25.7401H176.731C177.188 25.7401 177.563 25.6771 177.854 25.5511C178.146 25.4219 178.361 25.2346 178.501 24.9893C178.643 24.7408 178.714 24.4358 178.714 24.0746C178.714 23.7133 178.643 23.4051 178.501 23.1499C178.358 22.8913 178.141 22.6958 177.849 22.5632C177.558 22.4273 177.181 22.3594 176.721 22.3594H175.03V31H173.186ZM178.446 26.3864L180.966 31H178.908L176.432 26.3864H178.446ZM187.608 20.8182V31H185.764V20.8182H187.608ZM201.794 24.2536H199.934C199.881 23.9486 199.783 23.6785 199.641 23.4432C199.498 23.2045 199.321 23.0024 199.109 22.8366C198.897 22.6709 198.655 22.5466 198.383 22.4638C198.115 22.3776 197.825 22.3345 197.513 22.3345C196.96 22.3345 196.469 22.4737 196.042 22.7521C195.614 23.0272 195.279 23.4316 195.037 23.9652C194.795 24.4955 194.674 25.1435 194.674 25.9091C194.674 26.688 194.795 27.3442 195.037 27.8778C195.283 28.4081 195.617 28.8092 196.042 29.081C196.469 29.3494 196.958 29.4837 197.508 29.4837C197.813 29.4837 198.098 29.4439 198.363 29.3643C198.632 29.2815 198.872 29.1605 199.084 29.0014C199.3 28.8423 199.48 28.6468 199.626 28.4148C199.775 28.1828 199.878 27.9176 199.934 27.6193L201.794 27.6293C201.724 28.1132 201.573 28.5672 201.341 28.9915C201.113 29.4157 200.813 29.7902 200.441 30.1151C200.07 30.4366 199.636 30.6884 199.139 30.8707C198.642 31.0497 198.09 31.1392 197.483 31.1392C196.588 31.1392 195.79 30.9321 195.087 30.5178C194.384 30.1035 193.831 29.5052 193.426 28.723C193.022 27.9408 192.82 27.0028 192.82 25.9091C192.82 24.812 193.024 23.8741 193.431 23.0952C193.839 22.313 194.394 21.7147 195.097 21.3004C195.8 20.8861 196.595 20.679 197.483 20.679C198.05 20.679 198.577 20.7585 199.064 20.9176C199.551 21.0767 199.986 21.3104 200.367 21.6186C200.748 21.9235 201.061 22.2981 201.306 22.7422C201.555 23.183 201.717 23.6868 201.794 24.2536Z" fill="#4A5568"/>
</svg>
